<?xml version="1.0" encoding="utf-8"?>
<!-- Generator: Adobe Illustrator 18.0.0, SVG Export Plug-In . SVG Version: 6.00 Build 0)  -->
<!DOCTYPE svg PUBLIC "-//W3C//DTD SVG 1.1//EN" "http://www.w3.org/Graphics/SVG/1.1/DTD/svg11.dtd">
<svg version="1.1" id="Layer_1" xmlns="http://www.w3.org/2000/svg" xmlns:xlink="http://www.w3.org/1999/xlink" x="0px" y="0px"
	 viewBox="0 0 1080 643" enable-background="new 0 0 1080 643" xml:space="preserve">
<line fill="none" stroke="#000000" stroke-miterlimit="10" x1="0" y1="19.5" x2="90" y2="19.5"/>
<line fill="none" stroke="#000000" stroke-miterlimit="10" x1="0" y1="39.5" x2="90" y2="39.5"/>
<line fill="none" stroke="#000000" stroke-miterlimit="10" x1="89" y1="18.5" x2="89" y2="40.5"/>
<line fill="none" stroke="#000000" stroke-miterlimit="10" x1="90" y1="29.5" x2="180" y2="29.5"/>
<line fill="none" stroke="#000000" stroke-miterlimit="10" x1="90" y1="69.5" x2="180" y2="69.5"/>
<line fill="none" stroke="#000000" stroke-miterlimit="10" x1="0" y1="59.5" x2="90" y2="59.5"/>
<line fill="none" stroke="#000000" stroke-miterlimit="10" x1="0" y1="79.5" x2="90" y2="79.5"/>
<line fill="none" stroke="#000000" stroke-miterlimit="10" x1="89" y1="58.5" x2="89" y2="80.5"/>
<line fill="none" stroke="#000000" stroke-miterlimit="10" x1="179" y1="28.5" x2="179" y2="70.5"/>
<line fill="none" stroke="#000000" stroke-miterlimit="10" x1="0" y1="100.5" x2="90" y2="100.5"/>
<line fill="none" stroke="#000000" stroke-miterlimit="10" x1="0" y1="120.5" x2="90" y2="120.5"/>
<line fill="none" stroke="#000000" stroke-miterlimit="10" x1="89" y1="99.5" x2="89" y2="121.5"/>
<line fill="none" stroke="#000000" stroke-miterlimit="10" x1="90" y1="110.5" x2="180" y2="110.5"/>
<line fill="none" stroke="#000000" stroke-miterlimit="10" x1="90" y1="150.5" x2="180" y2="150.5"/>
<line fill="none" stroke="#000000" stroke-miterlimit="10" x1="0" y1="140.5" x2="90" y2="140.5"/>
<line fill="none" stroke="#000000" stroke-miterlimit="10" x1="0" y1="160.5" x2="90" y2="160.5"/>
<line fill="none" stroke="#000000" stroke-miterlimit="10" x1="89" y1="139.5" x2="89" y2="161.5"/>
<line fill="none" stroke="#000000" stroke-miterlimit="10" x1="179" y1="109.5" x2="179" y2="151.5"/>
<line fill="none" stroke="#000000" stroke-miterlimit="10" x1="0" y1="180.5" x2="90" y2="180.5"/>
<line fill="none" stroke="#000000" stroke-miterlimit="10" x1="0" y1="200.5" x2="90" y2="200.5"/>
<line fill="none" stroke="#000000" stroke-miterlimit="10" x1="89" y1="179.5" x2="89" y2="201.5"/>
<line fill="none" stroke="#000000" stroke-miterlimit="10" x1="90" y1="190.5" x2="180" y2="190.5"/>
<line fill="none" stroke="#000000" stroke-miterlimit="10" x1="90" y1="230.5" x2="180" y2="230.5"/>
<line fill="none" stroke="#000000" stroke-miterlimit="10" x1="0" y1="220.5" x2="90" y2="220.5"/>
<line fill="none" stroke="#000000" stroke-miterlimit="10" x1="0" y1="240.5" x2="90" y2="240.5"/>
<line fill="none" stroke="#000000" stroke-miterlimit="10" x1="89" y1="219.5" x2="89" y2="241.5"/>
<line fill="none" stroke="#000000" stroke-miterlimit="10" x1="179" y1="189.5" x2="179" y2="231.5"/>
<line fill="none" stroke="#000000" stroke-miterlimit="10" x1="0" y1="261.5" x2="90" y2="261.5"/>
<line fill="none" stroke="#000000" stroke-miterlimit="10" x1="0" y1="281.5" x2="90" y2="281.5"/>
<line fill="none" stroke="#000000" stroke-miterlimit="10" x1="89" y1="260.5" x2="89" y2="282.5"/>
<line fill="none" stroke="#000000" stroke-miterlimit="10" x1="90" y1="271.5" x2="180" y2="271.5"/>
<line fill="none" stroke="#000000" stroke-miterlimit="10" x1="90" y1="311.5" x2="180" y2="311.5"/>
<line fill="none" stroke="#000000" stroke-miterlimit="10" x1="0" y1="301.5" x2="90" y2="301.5"/>
<line fill="none" stroke="#000000" stroke-miterlimit="10" x1="0" y1="321.5" x2="90" y2="321.5"/>
<line fill="none" stroke="#000000" stroke-miterlimit="10" x1="89" y1="300.5" x2="89" y2="322.5"/>
<line fill="none" stroke="#000000" stroke-miterlimit="10" x1="179" y1="270.5" x2="179" y2="312.5"/>
<line fill="none" stroke="#000000" stroke-miterlimit="10" x1="180" y1="210.5" x2="270" y2="210.5"/>
<line fill="none" stroke="#000000" stroke-miterlimit="10" x1="180" y1="130.5" x2="270" y2="130.5"/>
<line fill="none" stroke="#000000" stroke-miterlimit="10" x1="180" y1="49.5" x2="270" y2="49.5"/>
<line fill="none" stroke="#000000" stroke-miterlimit="10" x1="180" y1="291.5" x2="270" y2="291.5"/>
<line fill="none" stroke="#000000" stroke-miterlimit="10" x1="269" y1="48.5" x2="269" y2="131.5"/>
<line fill="none" stroke="#000000" stroke-miterlimit="10" x1="269" y1="209.5" x2="269" y2="292.5"/>
<line fill="none" stroke="#000000" stroke-miterlimit="10" x1="270" y1="89.5" x2="360" y2="89.5"/>
<line fill="none" stroke="#000000" stroke-miterlimit="10" x1="270" y1="250.5" x2="360" y2="250.5"/>
<line fill="none" stroke="#000000" stroke-miterlimit="10" x1="359" y1="88.5" x2="359" y2="251.5"/>
<line fill="none" stroke="#000000" stroke-miterlimit="10" x1="360" y1="169.5" x2="450" y2="169.5"/>
<line fill="none" stroke="#000000" stroke-miterlimit="10" x1="0" y1="341.5" x2="90" y2="341.5"/>
<line fill="none" stroke="#000000" stroke-miterlimit="10" x1="0" y1="361.5" x2="90" y2="361.5"/>
<line fill="none" stroke="#000000" stroke-miterlimit="10" x1="89" y1="340.5" x2="89" y2="362.5"/>
<line fill="none" stroke="#000000" stroke-miterlimit="10" x1="90" y1="351.5" x2="180" y2="351.5"/>
<line fill="none" stroke="#000000" stroke-miterlimit="10" x1="90" y1="391.5" x2="180" y2="391.5"/>
<line fill="none" stroke="#000000" stroke-miterlimit="10" x1="0" y1="381.5" x2="90" y2="381.5"/>
<line fill="none" stroke="#000000" stroke-miterlimit="10" x1="0" y1="401.5" x2="90" y2="401.5"/>
<line fill="none" stroke="#000000" stroke-miterlimit="10" x1="89" y1="380.5" x2="89" y2="402.5"/>
<line fill="none" stroke="#000000" stroke-miterlimit="10" x1="179" y1="350.5" x2="179" y2="392.5"/>
<line fill="none" stroke="#000000" stroke-miterlimit="10" x1="0" y1="422.5" x2="90" y2="422.5"/>
<line fill="none" stroke="#000000" stroke-miterlimit="10" x1="0" y1="442.5" x2="90" y2="442.5"/>
<line fill="none" stroke="#000000" stroke-miterlimit="10" x1="89" y1="421.5" x2="89" y2="443.5"/>
<line fill="none" stroke="#000000" stroke-miterlimit="10" x1="90" y1="432.5" x2="180" y2="432.5"/>
<line fill="none" stroke="#000000" stroke-miterlimit="10" x1="90" y1="472.5" x2="180" y2="472.5"/>
<line fill="none" stroke="#000000" stroke-miterlimit="10" x1="0" y1="462.5" x2="90" y2="462.5"/>
<line fill="none" stroke="#000000" stroke-miterlimit="10" x1="0" y1="482.5" x2="90" y2="482.5"/>
<line fill="none" stroke="#000000" stroke-miterlimit="10" x1="89" y1="461.5" x2="89" y2="483.5"/>
<line fill="none" stroke="#000000" stroke-miterlimit="10" x1="179" y1="431.5" x2="179" y2="473.5"/>
<line fill="none" stroke="#000000" stroke-miterlimit="10" x1="0" y1="502.5" x2="90" y2="502.5"/>
<line fill="none" stroke="#000000" stroke-miterlimit="10" x1="0" y1="522.5" x2="90" y2="522.5"/>
<line fill="none" stroke="#000000" stroke-miterlimit="10" x1="89" y1="501.5" x2="89" y2="523.5"/>
<line fill="none" stroke="#000000" stroke-miterlimit="10" x1="90" y1="512.5" x2="180" y2="512.5"/>
<line fill="none" stroke="#000000" stroke-miterlimit="10" x1="90" y1="552.5" x2="180" y2="552.5"/>
<line fill="none" stroke="#000000" stroke-miterlimit="10" x1="0" y1="542.5" x2="90" y2="542.5"/>
<line fill="none" stroke="#000000" stroke-miterlimit="10" x1="0" y1="562.5" x2="90" y2="562.5"/>
<line fill="none" stroke="#000000" stroke-miterlimit="10" x1="89" y1="541.5" x2="89" y2="563.5"/>
<line fill="none" stroke="#000000" stroke-miterlimit="10" x1="179" y1="511.5" x2="179" y2="553.5"/>
<line fill="none" stroke="#000000" stroke-miterlimit="10" x1="0" y1="583.5" x2="90" y2="583.5"/>
<line fill="none" stroke="#000000" stroke-miterlimit="10" x1="0" y1="603.5" x2="90" y2="603.5"/>
<line fill="none" stroke="#000000" stroke-miterlimit="10" x1="89" y1="582.5" x2="89" y2="604.5"/>
<line fill="none" stroke="#000000" stroke-miterlimit="10" x1="90" y1="593.5" x2="180" y2="593.5"/>
<line fill="none" stroke="#000000" stroke-miterlimit="10" x1="90" y1="633.5" x2="180" y2="633.5"/>
<line fill="none" stroke="#000000" stroke-miterlimit="10" x1="0" y1="623.5" x2="90" y2="623.5"/>
<line fill="none" stroke="#000000" stroke-miterlimit="10" x1="0" y1="642.5" x2="90" y2="642.5"/>
<line fill="none" stroke="#000000" stroke-miterlimit="10" x1="89" y1="622.5" x2="89" y2="644.5"/>
<line fill="none" stroke="#000000" stroke-miterlimit="10" x1="179" y1="592.5" x2="179" y2="634.5"/>
<line fill="none" stroke="#000000" stroke-miterlimit="10" x1="180" y1="532.5" x2="270" y2="532.5"/>
<line fill="none" stroke="#000000" stroke-miterlimit="10" x1="180" y1="452.5" x2="270" y2="452.5"/>
<line fill="none" stroke="#000000" stroke-miterlimit="10" x1="180" y1="371.5" x2="270" y2="371.5"/>
<line fill="none" stroke="#000000" stroke-miterlimit="10" x1="180" y1="613.5" x2="270" y2="613.5"/>
<line fill="none" stroke="#000000" stroke-miterlimit="10" x1="269" y1="370.5" x2="269" y2="453.5"/>
<line fill="none" stroke="#000000" stroke-miterlimit="10" x1="269" y1="531.5" x2="269" y2="614.5"/>
<line fill="none" stroke="#000000" stroke-miterlimit="10" x1="270" y1="411.5" x2="360" y2="411.5"/>
<line fill="none" stroke="#000000" stroke-miterlimit="10" x1="270" y1="572.5" x2="360" y2="572.5"/>
<line fill="none" stroke="#000000" stroke-miterlimit="10" x1="359" y1="410.5" x2="359" y2="573.5"/>
<line fill="none" stroke="#000000" stroke-miterlimit="10" x1="360" y1="491.5" x2="450" y2="491.5"/>
<line fill="none" stroke="#000000" stroke-miterlimit="10" x1="1080" y1="19.5" x2="990" y2="19.5"/>
<line fill="none" stroke="#000000" stroke-miterlimit="10" x1="1080" y1="39.5" x2="990" y2="39.5"/>
<line fill="none" stroke="#000000" stroke-miterlimit="10" x1="991" y1="18.5" x2="991" y2="40.5"/>
<line fill="none" stroke="#000000" stroke-miterlimit="10" x1="990" y1="29.5" x2="900" y2="29.5"/>
<line fill="none" stroke="#000000" stroke-miterlimit="10" x1="990" y1="69.5" x2="900" y2="69.5"/>
<line fill="none" stroke="#000000" stroke-miterlimit="10" x1="1080" y1="59.5" x2="990" y2="59.5"/>
<line fill="none" stroke="#000000" stroke-miterlimit="10" x1="1080" y1="79.5" x2="990" y2="79.5"/>
<line fill="none" stroke="#000000" stroke-miterlimit="10" x1="991" y1="58.5" x2="991" y2="80.5"/>
<line fill="none" stroke="#000000" stroke-miterlimit="10" x1="901" y1="28.5" x2="901" y2="70.5"/>
<line fill="none" stroke="#000000" stroke-miterlimit="10" x1="1080" y1="100.5" x2="990" y2="100.5"/>
<line fill="none" stroke="#000000" stroke-miterlimit="10" x1="1080" y1="120.5" x2="990" y2="120.5"/>
<line fill="none" stroke="#000000" stroke-miterlimit="10" x1="991" y1="99.5" x2="991" y2="121.5"/>
<line fill="none" stroke="#000000" stroke-miterlimit="10" x1="990" y1="110.5" x2="900" y2="110.5"/>
<line fill="none" stroke="#000000" stroke-miterlimit="10" x1="990" y1="150.5" x2="900" y2="150.5"/>
<line fill="none" stroke="#000000" stroke-miterlimit="10" x1="1080" y1="140.5" x2="990" y2="140.5"/>
<line fill="none" stroke="#000000" stroke-miterlimit="10" x1="1080" y1="160.5" x2="990" y2="160.5"/>
<line fill="none" stroke="#000000" stroke-miterlimit="10" x1="991" y1="139.5" x2="991" y2="161.5"/>
<line fill="none" stroke="#000000" stroke-miterlimit="10" x1="901" y1="109.5" x2="901" y2="151.5"/>
<line fill="none" stroke="#000000" stroke-miterlimit="10" x1="1080" y1="180.5" x2="990" y2="180.5"/>
<line fill="none" stroke="#000000" stroke-miterlimit="10" x1="1080" y1="200.5" x2="990" y2="200.5"/>
<line fill="none" stroke="#000000" stroke-miterlimit="10" x1="991" y1="179.5" x2="991" y2="201.5"/>
<line fill="none" stroke="#000000" stroke-miterlimit="10" x1="990" y1="190.5" x2="900" y2="190.5"/>
<line fill="none" stroke="#000000" stroke-miterlimit="10" x1="990" y1="230.5" x2="900" y2="230.5"/>
<line fill="none" stroke="#000000" stroke-miterlimit="10" x1="1080" y1="220.5" x2="990" y2="220.5"/>
<line fill="none" stroke="#000000" stroke-miterlimit="10" x1="1080" y1="240.5" x2="990" y2="240.5"/>
<line fill="none" stroke="#000000" stroke-miterlimit="10" x1="991" y1="219.5" x2="991" y2="241.5"/>
<line fill="none" stroke="#000000" stroke-miterlimit="10" x1="901" y1="189.5" x2="901" y2="231.5"/>
<line fill="none" stroke="#000000" stroke-miterlimit="10" x1="1080" y1="261.5" x2="990" y2="261.5"/>
<line fill="none" stroke="#000000" stroke-miterlimit="10" x1="1080" y1="281.5" x2="990" y2="281.5"/>
<line fill="none" stroke="#000000" stroke-miterlimit="10" x1="991" y1="260.5" x2="991" y2="282.5"/>
<line fill="none" stroke="#000000" stroke-miterlimit="10" x1="990" y1="271.5" x2="900" y2="271.5"/>
<line fill="none" stroke="#000000" stroke-miterlimit="10" x1="990" y1="311.5" x2="900" y2="311.5"/>
<line fill="none" stroke="#000000" stroke-miterlimit="10" x1="1080" y1="301.5" x2="990" y2="301.5"/>
<line fill="none" stroke="#000000" stroke-miterlimit="10" x1="1080" y1="321.5" x2="990" y2="321.5"/>
<line fill="none" stroke="#000000" stroke-miterlimit="10" x1="991" y1="300.5" x2="991" y2="322.5"/>
<line fill="none" stroke="#000000" stroke-miterlimit="10" x1="901" y1="270.5" x2="901" y2="312.5"/>
<line fill="none" stroke="#000000" stroke-miterlimit="10" x1="900" y1="210.5" x2="810" y2="210.5"/>
<line fill="none" stroke="#000000" stroke-miterlimit="10" x1="900" y1="130.5" x2="810" y2="130.5"/>
<line fill="none" stroke="#000000" stroke-miterlimit="10" x1="900" y1="49.5" x2="810" y2="49.5"/>
<line fill="none" stroke="#000000" stroke-miterlimit="10" x1="900" y1="291.5" x2="810" y2="291.5"/>
<line fill="none" stroke="#000000" stroke-miterlimit="10" x1="811" y1="48.5" x2="811" y2="131.5"/>
<line fill="none" stroke="#000000" stroke-miterlimit="10" x1="811" y1="209.5" x2="811" y2="292.5"/>
<line fill="none" stroke="#000000" stroke-miterlimit="10" x1="810" y1="89.5" x2="720" y2="89.5"/>
<line fill="none" stroke="#000000" stroke-miterlimit="10" x1="810" y1="250.5" x2="720" y2="250.5"/>
<line fill="none" stroke="#000000" stroke-miterlimit="10" x1="721" y1="88.5" x2="721" y2="251.5"/>
<line fill="none" stroke="#000000" stroke-miterlimit="10" x1="720" y1="169.5" x2="630" y2="169.5"/>
<line fill="none" stroke="#000000" stroke-miterlimit="10" x1="1080" y1="341.5" x2="990" y2="341.5"/>
<line fill="none" stroke="#000000" stroke-miterlimit="10" x1="1080" y1="361.5" x2="990" y2="361.5"/>
<line fill="none" stroke="#000000" stroke-miterlimit="10" x1="991" y1="340.5" x2="991" y2="362.5"/>
<line fill="none" stroke="#000000" stroke-miterlimit="10" x1="990" y1="351.5" x2="900" y2="351.5"/>
<line fill="none" stroke="#000000" stroke-miterlimit="10" x1="990" y1="391.5" x2="900" y2="391.5"/>
<line fill="none" stroke="#000000" stroke-miterlimit="10" x1="1080" y1="381.5" x2="990" y2="381.5"/>
<line fill="none" stroke="#000000" stroke-miterlimit="10" x1="1080" y1="401.5" x2="990" y2="401.5"/>
<line fill="none" stroke="#000000" stroke-miterlimit="10" x1="991" y1="380.5" x2="991" y2="402.5"/>
<line fill="none" stroke="#000000" stroke-miterlimit="10" x1="901" y1="350.5" x2="901" y2="392.5"/>
<line fill="none" stroke="#000000" stroke-miterlimit="10" x1="1080" y1="422.5" x2="990" y2="422.5"/>
<line fill="none" stroke="#000000" stroke-miterlimit="10" x1="1080" y1="442.5" x2="990" y2="442.5"/>
<line fill="none" stroke="#000000" stroke-miterlimit="10" x1="991" y1="421.5" x2="991" y2="443.5"/>
<line fill="none" stroke="#000000" stroke-miterlimit="10" x1="990" y1="432.5" x2="900" y2="432.5"/>
<line fill="none" stroke="#000000" stroke-miterlimit="10" x1="990" y1="472.5" x2="900" y2="472.5"/>
<line fill="none" stroke="#000000" stroke-miterlimit="10" x1="1080" y1="462.5" x2="990" y2="462.5"/>
<line fill="none" stroke="#000000" stroke-miterlimit="10" x1="1080" y1="482.5" x2="990" y2="482.5"/>
<line fill="none" stroke="#000000" stroke-miterlimit="10" x1="991" y1="461.5" x2="991" y2="483.5"/>
<line fill="none" stroke="#000000" stroke-miterlimit="10" x1="901" y1="431.5" x2="901" y2="473.5"/>
<line fill="none" stroke="#000000" stroke-miterlimit="10" x1="1080" y1="502.5" x2="990" y2="502.5"/>
<line fill="none" stroke="#000000" stroke-miterlimit="10" x1="1080" y1="522.5" x2="990" y2="522.5"/>
<line fill="none" stroke="#000000" stroke-miterlimit="10" x1="991" y1="501.5" x2="991" y2="523.5"/>
<line fill="none" stroke="#000000" stroke-miterlimit="10" x1="990" y1="512.5" x2="900" y2="512.5"/>
<line fill="none" stroke="#000000" stroke-miterlimit="10" x1="990" y1="552.5" x2="900" y2="552.5"/>
<line fill="none" stroke="#000000" stroke-miterlimit="10" x1="1080" y1="542.5" x2="990" y2="542.5"/>
<line fill="none" stroke="#000000" stroke-miterlimit="10" x1="1080" y1="562.5" x2="990" y2="562.5"/>
<line fill="none" stroke="#000000" stroke-miterlimit="10" x1="991" y1="541.5" x2="991" y2="563.5"/>
<line fill="none" stroke="#000000" stroke-miterlimit="10" x1="901" y1="511.5" x2="901" y2="553.5"/>
<line fill="none" stroke="#000000" stroke-miterlimit="10" x1="1080" y1="583.5" x2="990" y2="583.5"/>
<line fill="none" stroke="#000000" stroke-miterlimit="10" x1="1080" y1="603.5" x2="990" y2="603.5"/>
<line fill="none" stroke="#000000" stroke-miterlimit="10" x1="991" y1="582.5" x2="991" y2="604.5"/>
<line fill="none" stroke="#000000" stroke-miterlimit="10" x1="990" y1="593.5" x2="900" y2="593.5"/>
<line fill="none" stroke="#000000" stroke-miterlimit="10" x1="990" y1="633.5" x2="900" y2="633.5"/>
<line fill="none" stroke="#000000" stroke-miterlimit="10" x1="1080" y1="623.5" x2="990" y2="623.5"/>
<line fill="none" stroke="#000000" stroke-miterlimit="10" x1="1080" y1="641.5" x2="990" y2="641.5"/>
<line fill="none" stroke="#000000" stroke-miterlimit="10" x1="991" y1="622.5" x2="991" y2="644.5"/>
<line fill="none" stroke="#000000" stroke-miterlimit="10" x1="901" y1="592.5" x2="901" y2="634.5"/>
<line fill="none" stroke="#000000" stroke-miterlimit="10" x1="900" y1="532.5" x2="810" y2="532.5"/>
<line fill="none" stroke="#000000" stroke-miterlimit="10" x1="900" y1="452.5" x2="810" y2="452.5"/>
<line fill="none" stroke="#000000" stroke-miterlimit="10" x1="900" y1="371.5" x2="810" y2="371.5"/>
<line fill="none" stroke="#000000" stroke-miterlimit="10" x1="900" y1="613.5" x2="810" y2="613.5"/>
<line fill="none" stroke="#000000" stroke-miterlimit="10" x1="811" y1="370.5" x2="811" y2="453.5"/>
<line fill="none" stroke="#000000" stroke-miterlimit="10" x1="811" y1="531.5" x2="811" y2="614.5"/>
<line fill="none" stroke="#000000" stroke-miterlimit="10" x1="810" y1="411.5" x2="720" y2="411.5"/>
<line fill="none" stroke="#000000" stroke-miterlimit="10" x1="810" y1="572.5" x2="720" y2="572.5"/>
<line fill="none" stroke="#000000" stroke-miterlimit="10" x1="721" y1="410.5" x2="721" y2="573.5"/>
<line fill="none" stroke="#000000" stroke-miterlimit="10" x1="720" y1="491.5" x2="630" y2="491.5"/>
<line fill="none" stroke="#000000" stroke-miterlimit="10" x1="449" y1="168.5" x2="449" y2="492.5"/>
<line fill="none" stroke="#000000" stroke-miterlimit="10" x1="631" y1="168.5" x2="631" y2="492.5"/>
<line fill="none" stroke="#000000" stroke-miterlimit="10" x1="450" y1="276.5" x2="540" y2="276.5"/>
<line fill="none" stroke="#000000" stroke-miterlimit="10" x1="540" y1="384.5" x2="630" y2="384.5"/>
<line fill="none" stroke="#000000" stroke-miterlimit="10" x1="495" y1="330.5" x2="585" y2="330.5"/>
</svg>
