<?xml version="1.0" encoding="utf-8"?>
<!-- Generator: Adobe Illustrator 18.0.0, SVG Export Plug-In . SVG Version: 6.00 Build 0)  -->
<!DOCTYPE svg PUBLIC "-//W3C//DTD SVG 1.1//EN" "http://www.w3.org/Graphics/SVG/1.1/DTD/svg11.dtd">
<svg version="1.1" id="Layer_1" xmlns="http://www.w3.org/2000/svg" xmlns:xlink="http://www.w3.org/1999/xlink" x="0px" y="0px"
	 viewBox="0 0 500 500" enable-background="new 0 0 500 500" xml:space="preserve">
<g id="lFbzJr.tif">
	<g>
		<g>
			<path fill="#FFFFFF" d="M258.5,20.6c73.2,0,146.3,0,219.5,0c0,153,0,306,0,459c-153.2,0-306.5,0-459.7,0c0-73.2,0-146.3,0-219.5
				c0.2,1.5,0.5,3,0.7,4.6c1.3,10,1.8,20.2,3.9,30c11.6,55.1,39.3,100.7,83.7,135.5c39,30.5,83.7,46.3,133.1,48.6
				c18.5,0.9,36.9-0.9,55-4.8c57-12.4,103.3-41.7,138-88.6c29.2-39.4,43.7-84,44.6-132.9c0.4-19-1.8-37.8-6.4-56.2
				c-11.9-48.3-36.7-88.8-74.5-121c-9.3-7.9-19.4-15-29.9-21.3c-10.3-6.2-21.3-11.8-32.5-16.1c-11.1-4.3-21.8-10.4-34.2-11.3
				c-7.5-0.5-14.9-2.6-22.4-3.7C271,21.8,264.7,21.3,258.5,20.6z"/>
			<path d="M258.5,20.6c6.3,0.7,12.5,1.2,18.8,2.2c7.5,1.1,14.9,3.2,22.4,3.7c12.4,0.9,23.1,7,34.2,11.3
				c11.2,4.3,22.2,9.9,32.5,16.1c10.5,6.3,20.6,13.4,29.9,21.3c37.8,32.2,62.6,72.7,74.5,121c4.5,18.5,6.8,37.2,6.4,56.2
				c-1,48.9-15.5,93.6-44.6,132.9c-34.7,46.9-81,76.2-138,88.6c-18.1,3.9-36.5,5.7-55,4.8c-49.4-2.3-94.1-18-133.1-48.6
				c-44.4-34.8-72-80.3-83.7-135.5c-2.1-9.8-2.6-20-3.9-30c-0.2-1.5-0.4-3-0.7-4.6c0-6.9,0-13.9,0-20.8c0.2-1.2,0.4-2.3,0.6-3.5
				c1.7-12.1,2.7-24.4,5.3-36.3c8.6-39.8,27.1-74.7,54.5-104.7c23.3-25.5,51.1-44.5,83-57.5c18.1-7.3,36.8-12.5,56.2-14.7
				c6.4-0.7,12.8-1.4,19.1-2.1C244.1,20.6,251.3,20.6,258.5,20.6z M448.1,160.1c-0.2-1.3-0.2-2.8-0.7-3.9
				c-15.3-32.2-36.9-59.3-65.2-81c-6.8-5.2-14.1-9.9-21.2-14.8c-0.2,0.2-0.4,0.5-0.7,0.7c28.6,29,42.9,64.8,49,104.5
				c13-1.6,24.7-5.8,36.3-11.5C446.5,156.2,447.3,158.1,448.1,160.1c-0.4,0.7-0.6,1.8-1.2,2.1c-3.5,1.7-7.1,3.5-10.8,4.7
				c-8.4,2.7-16.9,5-24.9,7.3c0,19.5,0,39.3,0,59.4c19.3,7.3,39.4,14.5,56.6,28.2c1.2-15.3,0.1-29.8-2-44.4
				c-2.7-19-8.1-37.2-15.7-54.8C449.8,161.5,448.8,160.9,448.1,160.1z M390.2,295.1c0.3-0.5,0.6-0.9,0.7-1.3
				c4.9-17.1,8.5-34.5,11-52.2c0.3-2.2-0.5-3.2-2.5-3.8c-11.9-3.5-23.8-7.4-35.7-10.7c-33.2-9.1-66.7-16.5-100.8-21.7
				c-18.6-2.8-37.2-5.6-55.8-7.6c-15.9-1.7-31.8-2.8-47.8-3.4c-27.9-1.1-55.8-0.5-83.3,5.5c-13.1,2.8-25.8,6.8-36.5,15.3
				c-6.1,4.8-11.2,10.5-11.8,18.8c-0.3,4.8-0.6,9.5-0.6,14.3c0,19,2.2,37.7,7,56.2c5.4,20.8,13.6,40.4,24.8,58.8
				c0.7,1.1,2.4,2.1,3.8,2.3c13,1.7,26,1.3,38.9-0.1c18.2-1.9,36-6,53.6-11c31.8-9.2,62.5-21.6,93.3-33.6
				c29.9-11.6,59.7-24,91.6-29.4C357,288.4,373.9,288.1,390.2,295.1z M30.7,210.7c7.2-3.9,14.6-8.7,22.7-12.1
				c18.7-7.8,38.7-10.4,58.8-11.4c16.9-0.9,33.9-1,50.8-0.2c20.3,1,40.7,2.7,60.9,5.1c20.4,2.4,40.7,5.8,60.9,9.2
				c33,5.6,65.4,13.4,97.5,22.9c6.9,2,13.7,4.2,20.8,6.3c1.6-19,1.7-37.7-0.6-56.6c-4.6,0-9.1,0.4-13.4-0.1
				c-16.3-1.6-31.5-6.5-46.1-13.8c-22.8-11.4-42.8-27.1-63-42.4c-19.1-14.5-38.1-29-57.8-42.6c-16.8-11.6-35.3-19.9-55.5-24.1
				c-6.5-1.4-12.2-1-18.4,2.2c-30.9,16-57,37.6-77.7,65.6C49.9,146.5,36.6,177.6,30.7,210.7z M66.1,374.2c0.4,0.9,0.5,1.2,0.7,1.5
				c14.6,20.9,32.3,38.8,53.2,53.5c26.9,19,56.6,31.4,89,37.3c6.3,1.1,12.6,2.7,19.3,1.5c12.8-2.4,25.2-5.7,37.1-10.9
				c28.6-12.6,51.5-32.5,70.9-56.5c23-28.4,39.4-60.4,50.9-95c0.8-2.3,0.3-3.4-1.9-3.9c-6.8-1.5-13.6-3.7-20.5-4.1
				c-15-1.1-29.5,2.2-43.9,6.1c-24.8,6.7-48.5,16.2-72.4,25.6c-31.3,12.3-62.6,24.9-95.1,33.8c-21.6,6-43.4,10.6-65.9,11.1
				C80.6,374.3,73.6,374.2,66.1,374.2z M171,43c0.1,0.3,0.2,0.6,0.3,0.8c4.3,1.3,8.7,2.4,12.9,3.8c24.8,8.2,46.4,22.3,67.1,37.9
				c20.5,15.4,40.5,31.4,61.1,46.5c17.5,12.9,36,24,57.1,30.1c10.3,3,20.8,4.7,31.6,3.9c0.1-0.6,0.2-0.9,0.1-1.3
				c-0.9-4.8-1.8-9.6-2.8-14.3c-8-36-23.9-67.5-52.6-91.7c-8.5-7.1-17.3-13.9-27.9-17.7c-22-7.8-44.9-11.4-68.2-11.7
				c-18.4-0.2-36.6,1.9-54.4,6.4C187.1,37.9,179.1,40.6,171,43z M395.3,307.2c-0.5,1-0.9,1.7-1.2,2.5c-12.6,37.1-30.6,71.1-56,101
				c-14.3,16.9-30.5,31.7-49.5,42.9c-10.2,6-21.2,10.9-31.2,16c-0.3,0,0.3,0,1,0c18.5-0.5,36.6-3.9,54.2-9.4
				c44.7-14,81.5-39.5,110.2-76.6c0.9-1.1,1.8-2.8,1.6-4.1c-1.6-10.9-2.9-21.9-5.5-32.6C415.2,331.5,408.7,317.5,395.3,307.2z
				 M431.7,370.3c0.3-0.1,0.6-0.1,0.7-0.3c0.3-0.4,0.6-0.8,0.8-1.2c17.6-27.5,28.4-57.5,33.3-89.7c0.7-4.7-0.5-8.4-4.1-11.3
				c-0.9-0.8-1.8-1.6-2.7-2.3c-15-11.1-32.3-17.4-49.1-23.8c-4.1,19.3-8.2,38.5-12.2,57.7C422,316.8,427.5,343.1,431.7,370.3z"/>
			<path fill="#FFFFFF" d="M237,20.6c-6.4,0.7-12.8,1.4-19.1,2.1c-19.4,2.2-38.1,7.4-56.2,14.7c-32,13-59.8,32-83,57.5
				c-27.4,30-45.9,64.9-54.5,104.7c-2.6,11.9-3.6,24.2-5.3,36.3c-0.2,1.2-0.4,2.3-0.6,3.5c0-72.9,0-145.7,0-218.7
				C91.1,20.6,164,20.6,237,20.6z"/>
			<path fill="#FFFFFF" d="M390.2,295.1c-16.3-7-33.2-6.7-50.2-3.8c-31.9,5.5-61.6,17.8-91.6,29.4c-30.8,12-61.5,24.4-93.3,33.6
				c-17.6,5.1-35.4,9.1-53.6,11c-12.9,1.4-25.9,1.8-38.9,0.1c-1.4-0.2-3.1-1.2-3.8-2.3c-11.2-18.4-19.4-38-24.8-58.8
				c-4.8-18.4-7-37.2-7-56.2c0-4.8,0.2-9.6,0.6-14.3c0.6-8.3,5.8-14,11.8-18.8c10.7-8.5,23.4-12.4,36.5-15.3
				c27.5-6,55.4-6.5,83.3-5.5c16,0.6,31.9,1.7,47.8,3.4c18.7,2,37.3,4.8,55.8,7.6c34,5.2,67.6,12.5,100.8,21.7
				c12,3.3,23.8,7.1,35.7,10.7c2,0.6,2.9,1.6,2.5,3.8c-2.5,17.6-6.1,35-11,52.2C390.8,294.2,390.5,294.6,390.2,295.1z"/>
			<path fill="#FFFFFF" d="M30.7,210.7c6-33.1,19.2-64.1,39.8-91.9c20.7-28,46.8-49.6,77.7-65.6c6.2-3.2,11.9-3.5,18.4-2.2
				c20.2,4.3,38.7,12.5,55.5,24.1c19.7,13.6,38.8,28.1,57.8,42.6c20.2,15.3,40.2,31,63,42.4c14.6,7.3,29.9,12.2,46.1,13.8
				c4.4,0.4,8.8,0.1,13.4,0.1c2.3,18.9,2.2,37.6,0.6,56.6c-7.1-2.2-13.9-4.3-20.8-6.3c-32-9.5-64.5-17.3-97.5-22.9
				c-20.2-3.4-40.5-6.8-60.9-9.2c-20.2-2.4-40.5-4.1-60.9-5.1c-16.9-0.8-33.9-0.7-50.8,0.2c-20.1,1-40.1,3.6-58.8,11.4
				C45.3,201.9,37.9,206.7,30.7,210.7z"/>
			<path fill="#FFFFFF" d="M66.1,374.2c7.5,0,14.5,0.1,21.5,0c22.5-0.5,44.3-5.1,65.9-11.1c32.5-9,63.7-21.6,95.1-33.8
				c23.8-9.3,47.6-18.9,72.4-25.6c14.4-3.9,28.9-7.1,43.9-6.1c6.9,0.5,13.7,2.7,20.5,4.1c2.2,0.5,2.6,1.6,1.9,3.9
				c-11.6,34.6-28,66.6-50.9,95c-19.4,24-42.3,43.8-70.9,56.5c-11.9,5.3-24.3,8.6-37.1,10.9c-6.7,1.2-13-0.3-19.3-1.5
				c-32.4-5.9-62.1-18.2-89-37.3c-20.8-14.8-38.5-32.6-53.2-53.5C66.6,375.4,66.5,375,66.1,374.2z"/>
			<path fill="#FFFFFF" d="M171,43c8.1-2.4,16.1-5.1,24.3-7.2c17.8-4.5,36-6.6,54.4-6.4c23.3,0.3,46.2,3.9,68.2,11.7
				c10.6,3.7,19.4,10.5,27.9,17.7c28.7,24.1,44.6,55.6,52.6,91.7c1.1,4.7,1.9,9.5,2.8,14.3c0.1,0.3-0.1,0.7-0.1,1.3
				c-10.8,0.8-21.3-0.9-31.6-3.9c-21.1-6.1-39.6-17.2-57.1-30.1c-20.6-15.2-40.6-31.2-61.1-46.5C230.6,70,209,55.9,184.2,47.6
				c-4.3-1.4-8.6-2.6-12.9-3.8C171.2,43.5,171.1,43.2,171,43z"/>
			<path fill="#FFFFFF" d="M395.3,307.2c13.4,10.3,19.9,24.4,23.7,39.7c2.6,10.7,3.9,21.7,5.5,32.6c0.2,1.3-0.7,3-1.6,4.1
				c-28.7,37.1-65.5,62.6-110.2,76.6c-17.6,5.5-35.7,8.9-54.2,9.4c-0.7,0-1.3,0-1,0c10-5.1,20.9-9.9,31.2-16
				c19.1-11.2,35.2-26.1,49.5-42.9c25.4-29.9,43.4-64,56-101C394.4,308.9,394.8,308.2,395.3,307.2z"/>
			<path fill="#FFFFFF" d="M431.7,370.3c-4.2-27.2-9.7-53.5-33.3-70.9c4.1-19.2,8.2-38.4,12.2-57.7c16.8,6.4,34.1,12.7,49.1,23.8
				c1,0.7,1.8,1.6,2.7,2.3c3.6,3,4.8,6.6,4.1,11.3c-4.9,32.2-15.7,62.2-33.3,89.7c-0.3,0.4-0.5,0.8-0.8,1.2
				C432.2,370.2,432,370.2,431.7,370.3z"/>
			<path fill="#FFFFFF" d="M448.1,160.1c0.7,0.8,1.7,1.5,2.1,2.4c7.6,17.6,12.9,35.8,15.7,54.8c2.1,14.5,3.2,29.1,2,44.4
				c-17.2-13.6-37.3-20.9-56.6-28.2c0-20.1,0-39.9,0-59.4c8-2.3,16.5-4.6,24.9-7.3c3.7-1.2,7.2-3,10.8-4.7
				C447.5,161.9,447.7,160.8,448.1,160.1C448.1,160.1,448.1,160.1,448.1,160.1z"/>
			<path fill="#FFFFFF" d="M448.1,160.1c-0.8-1.9-1.6-3.9-2.5-6c-11.6,5.7-23.3,9.9-36.3,11.5c-6.1-39.6-20.3-75.4-49-104.5
				c0.2-0.2,0.4-0.5,0.7-0.7c7.1,4.9,14.4,9.5,21.2,14.8c28.3,21.7,49.9,48.8,65.2,81C447.9,157.3,447.9,158.8,448.1,160.1
				C448.1,160.1,448.1,160.1,448.1,160.1z"/>
		</g>
	</g>
</g>
<rect x="41" y="174" fill="#FFFFFF" width="280.4" height="53"/>
<g>
	<path fill="#F05A2B" d="M149.5,117.4L177.3,304h-49.6l-2.6-33.5h-17.4l-2.9,33.5H54.7l24.7-186.6H149.5z M123.8,237.4
		c-2.5-21.1-4.9-47.2-7.4-78.4c-4.9,35.7-8,61.8-9.3,78.4H123.8z"/>
	<path fill="#F05A2B" d="M185.5,117.4h48.4c15.3,0,26.9,1.2,34.7,3.6c7.9,2.4,14.2,7.2,19.1,14.5c4.8,7.3,7.3,18.9,7.3,35.1
		c0,10.9-1.7,18.5-5.1,22.8c-3.4,4.3-10.2,7.6-20.2,9.9c11.2,2.5,18.8,6.7,22.8,12.6c4,5.9,6,14.9,6,27v17.3c0,12.6-1.4,21.9-4.3,28
		c-2.9,6.1-7.5,10.2-13.8,12.5c-6.3,2.2-19.2,3.3-38.7,3.3h-56.1V117.4z M234,149.4v41.5c2.1-0.1,3.7-0.1,4.8-0.1
		c4.8,0,7.8-1.2,9.1-3.5c1.3-2.3,2-9,2-20.1c0-5.8-0.5-9.9-1.6-12.3c-1.1-2.3-2.5-3.8-4.2-4.4C242.4,149.8,239,149.4,234,149.4z
		 M234,219.9v52.2c6.8-0.2,11.2-1.3,13.1-3.2c1.9-1.9,2.8-6.6,2.8-14.2v-17.4c0-8-0.8-12.8-2.5-14.5
		C245.7,221.1,241.3,220.1,234,219.9z"/>
</g>
<g>
</g>
<g>
</g>
<g>
</g>
<g>
</g>
<g>
</g>
<g>
</g>
</svg>
