<?xml version="1.0" encoding="utf-8"?>
<!-- Generator: Adobe Illustrator 18.0.0, SVG Export Plug-In . SVG Version: 6.00 Build 0)  -->
<!DOCTYPE svg PUBLIC "-//W3C//DTD SVG 1.1//EN" "http://www.w3.org/Graphics/SVG/1.1/DTD/svg11.dtd">
<svg version="1.1" id="Layer_1" xmlns="http://www.w3.org/2000/svg" xmlns:xlink="http://www.w3.org/1999/xlink" x="0px" y="0px"
	 viewBox="0 0 483.3 116.7" enable-background="new 0 0 483.3 116.7" xml:space="preserve">
<line fill="none" stroke="#000000" stroke-width="7" stroke-miterlimit="10" x1="35.3" y1="81.7" x2="451.3" y2="81.7"/>
<line fill="none" stroke="#000000" stroke-width="7" stroke-miterlimit="10" x1="35.3" y1="112.2" x2="35.3" y2="4.3"/>
<line fill="none" stroke="#000000" stroke-width="7" stroke-miterlimit="10" x1="38.7" y1="7.7" x2="5.3" y2="7.7"/>
<line fill="none" stroke="#000000" stroke-width="7" stroke-miterlimit="10" x1="38.7" y1="108.7" x2="5.3" y2="108.7"/>
<line fill="none" stroke="#000000" stroke-width="7" stroke-miterlimit="10" x1="448" y1="112.2" x2="448" y2="4.3"/>
<line fill="none" stroke="#000000" stroke-width="7" stroke-miterlimit="10" x1="444.6" y1="7.7" x2="478" y2="7.7"/>
<line fill="none" stroke="#000000" stroke-width="7" stroke-miterlimit="10" x1="444.6" y1="108.7" x2="478" y2="108.7"/>
<g>
	<path fill="#F05A2B" d="M75.5,16.7L84,73.7H68.9l-0.8-10.2h-5.3l-0.9,10.2H46.6l7.5-56.9H75.5z M67.7,53.3
		c-0.7-6.4-1.5-14.4-2.3-23.9c-1.5,10.9-2.5,18.9-2.8,23.9H67.7z"/>
	<path fill="#F05A2B" d="M101.3,16.7v45.5h9v11.4H86.5V16.7H101.3z"/>
	<path fill="#F05A2B" d="M146.9,37.7h-14.8v-5.2c0-3.3-0.1-5.3-0.4-6.1c-0.3-0.8-0.9-1.2-2-1.2c-0.9,0-1.5,0.4-1.9,1.1
		c-0.3,0.7-0.5,2.5-0.5,5.4V59c0,2.6,0.2,4.2,0.5,5c0.3,0.8,1,1.2,2,1.2c1.1,0,1.8-0.5,2.2-1.4c0.4-0.9,0.6-2.7,0.6-5.3v-6.8h-3
		v-8.6h17.3v30.6h-9.3l-1.4-4.1c-1,1.8-2.3,3.1-3.8,4s-3.3,1.3-5.4,1.3c-2.5,0-4.8-0.6-7-1.8s-3.8-2.7-4.9-4.5
		c-1.1-1.8-1.8-3.7-2.1-5.6c-0.3-2-0.4-4.9-0.4-8.8V37.2c0-5.4,0.3-9.4,0.9-11.8c0.6-2.5,2.3-4.7,5-6.8c2.8-2.1,6.4-3.1,10.8-3.1
		c4.3,0,7.9,0.9,10.8,2.7c2.9,1.8,4.7,3.9,5.6,6.3c0.9,2.4,1.3,6,1.3,10.7V37.7z"/>
	<path fill="#F05A2B" d="M152.6,16.7h24.7v11.4h-9.9v10.8h9.2v10.8h-9.2v12.5h10.9v11.4h-25.7V16.7z"/>
	<path fill="#F05A2B" d="M182.6,16.7h14.8c4.7,0,8.2,0.4,10.6,1.1c2.4,0.7,4.3,2.2,5.8,4.4c1.5,2.2,2.2,5.8,2.2,10.7
		c0,3.3-0.5,5.6-1.6,7c-1,1.3-3.1,2.3-6.2,3c3.4,0.8,5.7,2.1,7,3.9c1.2,1.8,1.8,4.5,1.8,8.2v5.3c0,3.8-0.4,6.7-1.3,8.5
		c-0.9,1.9-2.3,3.1-4.2,3.8c-1.9,0.7-5.9,1-11.8,1h-17.1V16.7z M197.4,26.5v12.7c0.6,0,1.1,0,1.5,0c1.5,0,2.4-0.4,2.8-1.1
		c0.4-0.7,0.6-2.8,0.6-6.1c0-1.8-0.2-3-0.5-3.7c-0.3-0.7-0.8-1.2-1.3-1.4C199.9,26.6,198.9,26.5,197.4,26.5z M197.4,48v15.9
		c2.1-0.1,3.4-0.4,4-1c0.6-0.6,0.9-2,0.9-4.3v-5.3c0-2.4-0.3-3.9-0.8-4.4C200.9,48.4,199.6,48.1,197.4,48z"/>
	<path fill="#F05A2B" d="M222.3,16.7h10.5c7,0,11.7,0.3,14.2,0.8c2.5,0.5,4.5,1.9,6,4.1c1.6,2.2,2.3,5.7,2.3,10.6
		c0,4.4-0.6,7.4-1.7,8.9c-1.1,1.5-3.3,2.4-6.5,2.7c2.9,0.7,4.9,1.7,5.9,2.9c1,1.2,1.6,2.3,1.9,3.4s0.4,3.8,0.4,8.4v15h-13.7V54.8
		c0-3-0.2-4.9-0.7-5.7c-0.5-0.7-1.7-1.1-3.8-1.1v25.7h-14.8V16.7z M237.1,26.5v12.7c1.7,0,2.8-0.2,3.5-0.7s1-1.9,1-4.4v-3.1
		c0-1.8-0.3-3-1-3.6C240,26.8,238.8,26.5,237.1,26.5z"/>
	<path fill="#F05A2B" d="M286.7,16.7l8.5,56.9H280l-0.8-10.2h-5.3L273,73.7h-15.3l7.5-56.9H286.7z M278.8,53.3
		c-0.7-6.4-1.5-14.4-2.3-23.9c-1.5,10.9-2.5,18.9-2.8,23.9H278.8z"/>
	<path d="M332.2,41.5h-14.8v-9.9c0-2.9-0.2-4.7-0.5-5.4s-1-1.1-2.1-1.1c-1.2,0-2,0.4-2.3,1.3c-0.3,0.9-0.5,2.7-0.5,5.6v26.4
		c0,2.8,0.2,4.6,0.5,5.4c0.3,0.8,1.1,1.3,2.2,1.3c1.1,0,1.8-0.4,2.2-1.3c0.3-0.8,0.5-2.8,0.5-6v-7.2h14.8v2.2
		c0,5.9-0.4,10.1-1.2,12.5c-0.8,2.5-2.7,4.6-5.5,6.5c-2.8,1.9-6.4,2.8-10.5,2.8c-4.3,0-7.9-0.8-10.7-2.4s-4.7-3.7-5.6-6.5
		c-0.9-2.8-1.4-7-1.4-12.5V36.8c0-4.1,0.1-7.2,0.4-9.2c0.3-2.1,1.1-4,2.5-5.9c1.4-1.9,3.3-3.4,5.8-4.5c2.5-1.1,5.3-1.6,8.5-1.6
		c4.4,0,8,0.8,10.8,2.5c2.8,1.7,4.7,3.8,5.6,6.3c0.9,2.5,1.3,6.4,1.3,11.7V41.5z"/>
	<path d="M372.8,16.7l-8.5,25.7l9.3,31.2h-15.3l-6-24.4v24.4h-14.8V16.7h14.8v22.1l6.6-22.1H372.8z"/>
	<path d="M376.2,16.7h24.7v11.4H391v10.8h9.2v10.8H391v12.5h10.9v11.4h-25.7V16.7z"/>
	<path d="M434.9,16.7v11.4h-8.8v45.5h-14.8V28.1h-8.8V16.7H434.9z"/>
</g>
<g>
</g>
<g>
</g>
<g>
</g>
<g>
</g>
<g>
</g>
<g>
</g>
</svg>
