<?xml version="1.0" encoding="utf-8"?>
<!-- Generator: Adobe Illustrator 18.0.0, SVG Export Plug-In . SVG Version: 6.00 Build 0)  -->
<!DOCTYPE svg PUBLIC "-//W3C//DTD SVG 1.1//EN" "http://www.w3.org/Graphics/SVG/1.1/DTD/svg11.dtd">
<svg version="1.1" id="Layer_1" xmlns="http://www.w3.org/2000/svg" xmlns:xlink="http://www.w3.org/1999/xlink" x="0px" y="0px"
	 viewBox="0 0 359.3 74.3" enable-background="new 0 0 359.3 74.3" xml:space="preserve">
<g>
	<path fill="#0F7AC0" d="M17.6,59.8L33,13.4h6.1l15.4,46.3h-4.7l-4.2-12.6H26.3l-4.1,12.6H17.6z M35.9,16.6c-0.3,1-0.8,2.6-1.6,5
		s-1.3,4.1-1.6,5.2l-5.3,16.8h17.1l-5.4-16.9C37.8,23,36.8,19.6,35.9,16.6z"/>
	<path fill="#0F7AC0" d="M59.6,59.8V13.1h4.5v46.7H59.6z"/>
	<path fill="#0F7AC0" d="M85.3,73.3c-5.6,0-9.4-1.7-11.5-5.1l2.6-2.5c1.7,2.8,4.8,4.2,9.1,4.2c3,0,5.3-1,6.8-2.9
		c1.5-1.9,2.2-4.6,2.2-8.1v-3.2c-2.5,3.2-5.7,4.9-9.8,4.9c-4.1,0-7.4-1.6-9.7-4.8c-2.3-3.2-3.5-7.4-3.5-12.6c0-3.2,0.5-6,1.4-8.4
		s2.4-4.4,4.4-5.8c2-1.4,4.3-2.2,7.1-2.2c4.2,0,7.6,1.6,10.4,4.8l0.3-4.2h3.6v31.7c0,4.2-1.2,7.6-3.5,10.3
		C92.9,72,89.6,73.3,85.3,73.3z M94.5,42.6c0-2.1-0.2-3.9-0.7-5.5c-0.4-1.6-1-2.8-1.6-3.7c-0.6-0.9-1.4-1.6-2.3-2.1
		c-0.9-0.5-1.7-0.9-2.5-1.1C86.6,30.1,85.8,30,85,30c-1.5,0-2.9,0.4-4.1,1.1c-1.2,0.7-2.1,1.7-2.8,3c-0.7,1.2-1.2,2.6-1.5,4.1
		c-0.3,1.5-0.5,3.1-0.5,4.8c0,4.5,0.8,8,2.4,10.5c1.6,2.5,3.7,3.7,6.4,3.7c0.9,0,1.8-0.1,2.7-0.3c0.8-0.2,1.7-0.6,2.6-1.2
		c0.9-0.6,1.6-1.4,2.3-2.3c0.6-1,1.1-2.3,1.6-3.9c0.4-1.7,0.6-3.6,0.6-5.8V42.6z"/>
	<path fill="#0F7AC0" d="M119.5,26.7c2.2,0,4.1,0.4,5.8,1.2c1.7,0.8,3,1.8,4,3.2c1,1.4,1.8,3,2.3,4.8c0.5,1.8,0.8,3.8,0.8,6
		c0,0.7,0,1.4-0.1,1.9h-22.1c0,1.8,0.2,3.5,0.5,5.1s0.9,3,1.6,4.3c0.7,1.3,1.7,2.2,3,3c1.3,0.7,2.7,1.1,4.4,1.1
		c2.1,0,3.9-0.5,5.3-1.5c1.4-1,2.3-2.4,2.9-4.1l3.5,0.8c-0.5,1.8-1.3,3.3-2.6,4.6c-1.2,1.3-2.6,2.2-4.1,2.7
		c-1.5,0.6-3.1,0.8-4.8,0.8h-0.1c-2.4,0-4.5-0.5-6.3-1.4c-1.8-0.9-3.3-2.2-4.4-3.8S107,52,106.4,50c-0.5-2-0.8-4.1-0.8-6.4
		c0-5,1.2-9.1,3.7-12.2C111.7,28.3,115.2,26.7,119.5,26.7z M128.1,40.9c0-3.5-0.7-6.1-2.2-8c-1.4-1.9-3.6-2.8-6.5-2.8
		c-1.4,0-2.7,0.3-3.8,0.9c-1.1,0.6-2,1.4-2.8,2.4c-0.7,1-1.3,2.2-1.7,3.5c-0.4,1.3-0.7,2.7-0.8,4.2H128.1z"/>
	<path fill="#0F7AC0" d="M139.9,59.8V13.5h13.9c1.5,0,2.8,0,4,0c1.2,0,2.5,0.1,3.8,0.3c1.3,0.2,2.5,0.5,3.5,0.9c1,0.4,2,0.8,2.9,1.4
		c0.9,0.6,1.7,1.3,2.3,2.1s1.1,1.8,1.4,2.9c0.4,1.2,0.5,2.4,0.5,3.9c0,5.5-2.9,8.7-8.6,9.7c3.3,0.7,5.8,2,7.5,4.1
		c1.7,2.1,2.5,4.7,2.5,7.8c0,2.6-0.4,4.7-1.2,6.4c-0.8,1.7-2.1,3-3.9,4c-1.8,1-3.9,1.7-6.5,2.1s-5.7,0.6-9.4,0.6H139.9z M144.5,16.8
		v16.4h7.2c1.3,0,2.3,0,3.2,0s1.8,0,2.8,0c1,0,1.8,0,2.5-0.1c0.6-0.1,1.3-0.2,2.1-0.4c0.7-0.1,1.3-0.3,1.8-0.5
		c0.5-0.2,0.9-0.5,1.4-0.8c0.5-0.3,0.8-0.7,1.1-1.1c0.3-0.4,0.5-0.9,0.7-1.4c0.2-0.5,0.4-1.1,0.5-1.8s0.1-1.4,0.1-2.2
		c0-0.9-0.1-1.7-0.2-2.4c-0.2-0.7-0.4-1.3-0.6-1.9s-0.6-1-1.1-1.4s-0.9-0.8-1.4-1s-1-0.5-1.7-0.7c-0.7-0.2-1.3-0.4-1.9-0.4
		s-1.3-0.2-2.2-0.2c-0.9-0.1-1.6-0.1-2.3-0.1c-0.6,0-1.5,0-2.5,0H144.5z M144.5,36.8v19.5h9.9c1.2,0,2.2,0,3,0
		c0.8,0,1.8-0.1,2.9-0.2c1.1-0.1,2-0.3,2.8-0.6c0.7-0.3,1.5-0.6,2.3-1.1c0.8-0.5,1.4-1.1,1.9-1.7c0.5-0.7,0.9-1.5,1.2-2.6
		s0.5-2.2,0.5-3.5c0-1.1-0.1-2-0.3-2.9c-0.2-0.9-0.4-1.6-0.7-2.3c-0.3-0.7-0.7-1.2-1.2-1.7c-0.5-0.5-1-0.9-1.5-1.3s-1.1-0.6-1.9-0.9
		s-1.5-0.4-2.1-0.6c-0.6-0.1-1.4-0.2-2.4-0.2s-1.8,0-2.5,0c-0.7,0-1.6,0-2.7,0H144.5z"/>
	<path fill="#0F7AC0" d="M184.4,27.4v6.1c0.6-1.5,1.4-2.7,2.6-3.6c1.1-1,2.3-1.6,3.4-2s2.4-0.5,3.7-0.5v4.1c-1.8,0-3.3,0.3-4.5,0.9
		c-1.3,0.6-2.3,1.5-3,2.6c-0.7,1.1-1.2,2.3-1.6,3.6c-0.3,1.3-0.5,2.7-0.5,4.3v16.8H180V27.4H184.4z"/>
	<path fill="#0F7AC0" d="M218.5,56.1c-3.6,3-7.5,4.4-11.6,4.4c-2.7,0-5-0.7-6.8-2.2c-1.8-1.5-2.7-3.6-2.7-6.3c0-1.1,0.2-2.2,0.5-3.1
		c0.3-0.9,0.8-1.7,1.2-2.3c0.5-0.6,1.2-1.2,2.2-1.8c1-0.5,1.9-1,2.6-1.3c0.7-0.3,1.9-0.6,3.4-0.9c1.5-0.3,2.7-0.6,3.6-0.7
		s2.3-0.4,4.1-0.6l3.1-0.5v-1.3c0-3.5-0.6-5.9-1.7-7.3c-1.2-1.3-3.1-2-5.9-2c-1.8,0-3.5,0.3-5.1,1c-1.6,0.7-2.9,1.7-4,3
		c0,0-0.9-0.9-2.7-2.6c2.6-3.3,6.6-4.9,12-4.9c7.9,0,11.9,3.9,11.9,11.7v21.3h-3.7L218.5,56.1z M218.3,43.8l-3.1,0.5
		c-1.7,0.3-3,0.5-4.1,0.7c-1.1,0.2-2.2,0.4-3.3,0.7c-1.1,0.3-2,0.6-2.7,0.9c-0.7,0.3-1.3,0.7-1.8,1.2c-0.6,0.5-1,1-1.2,1.6
		s-0.3,1.3-0.3,2.1c0,4.1,2,6.1,6,6.1c3.4,0,6.9-1.5,10.5-4.6V43.8z"/>
	<path fill="#0F7AC0" d="M229.8,43.6c0-3.3,0.5-6.2,1.6-8.7c1-2.5,2.6-4.5,4.8-6c2.2-1.5,4.7-2.2,7.8-2.2c1.3,0,2.5,0.2,3.7,0.5
		c1.1,0.3,2.3,0.8,3.4,1.6c1.1,0.7,2,1.7,2.9,3.1c0.8,1.3,1.5,2.9,1.9,4.7l-3.8,1c-0.7-2.6-1.6-4.5-2.9-5.7c-1.3-1.2-2.9-1.9-5-1.9
		c-3.2,0-5.7,1.2-7.3,3.6c-1.6,2.4-2.4,5.7-2.4,9.9c0,2,0.2,3.9,0.5,5.5c0.4,1.6,0.9,3.1,1.6,4.3c0.7,1.2,1.7,2.2,2.9,2.8
		c1.2,0.7,2.6,1,4.2,1c4.2,0,7-2.5,8.5-7.4l3.5,1.1c-0.4,1.7-1,3.2-1.8,4.5c-0.8,1.3-1.8,2.3-2.9,3c-1.1,0.7-2.3,1.3-3.5,1.6
		s-2.5,0.5-3.8,0.5c-4.5,0-7.9-1.5-10.3-4.6C231,52.8,229.8,48.7,229.8,43.6z"/>
	<path fill="#0F7AC0" d="M283.2,27.4h5.1l-12.1,11.8l13.9,20.6h-5.1l-11.8-17.9l-6.7,6.2v11.7h-4.5V13h4.5v30.6L283.2,27.4z"/>
	<path fill="#0F7AC0" d="M306.7,26.7c2.2,0,4.1,0.4,5.8,1.2c1.7,0.8,3,1.8,4,3.2c1,1.4,1.8,3,2.3,4.8c0.5,1.8,0.8,3.8,0.8,6
		c0,0.7,0,1.4-0.1,1.9h-22.1c0,1.8,0.2,3.5,0.5,5.1c0.4,1.6,0.9,3,1.6,4.3c0.7,1.3,1.7,2.2,3,3c1.3,0.7,2.7,1.1,4.4,1.1
		c2.1,0,3.9-0.5,5.3-1.5c1.4-1,2.3-2.4,2.9-4.1l3.5,0.8c-0.5,1.8-1.3,3.3-2.6,4.6c-1.2,1.3-2.6,2.2-4.1,2.7s-3.1,0.8-4.8,0.8h-0.1
		c-2.4,0-4.5-0.5-6.3-1.4c-1.8-0.9-3.3-2.2-4.4-3.8c-1.1-1.6-1.9-3.4-2.5-5.4c-0.5-2-0.8-4.1-0.8-6.4c0-5,1.2-9.1,3.7-12.2
		C298.9,28.3,302.4,26.7,306.7,26.7z M315.3,40.9c0-3.5-0.7-6.1-2.2-8c-1.4-1.9-3.6-2.8-6.5-2.8c-1.4,0-2.7,0.3-3.8,0.9
		c-1.1,0.6-2,1.4-2.8,2.4c-0.7,1-1.3,2.2-1.7,3.5c-0.4,1.3-0.7,2.7-0.8,4.2H315.3z"/>
	<path fill="#0F7AC0" d="M341.2,55.8l0.8,2.9c-1.6,1-3.4,1.5-5.6,1.5c-2.8,0-4.8-0.8-6.1-2.5c-1.3-1.7-1.9-4.4-1.9-8.2v-19h-4.8
		v-3.1h5.1V17l4.2-1.2v11.5h7.1v3.1h-7.1v21c0,3.6,1.5,5.4,4.4,5.4C338.3,56.9,339.6,56.5,341.2,55.8z"/>
</g>
<g>
	<path fill="#0F7AC0" d="M1,33.6c0.7-0.1,1.3-0.2,1.9-0.4c0.6-0.2,1.1-0.4,1.5-0.6c0.4-0.2,0.8-0.6,1.1-1c0.3-0.4,0.6-0.8,0.8-1.1
		c0.2-0.3,0.4-0.8,0.5-1.4C7,28.5,7.1,28,7.1,27.7c0.1-0.4,0.1-0.9,0.2-1.7c0-0.7,0.1-1.3,0.1-1.6c0-0.3,0-0.9,0-1.7
		c0-1.7,0-3,0-3.8c0-0.8,0.1-2,0.2-3.4c0.1-1.4,0.2-2.5,0.4-3.3c0.2-0.7,0.5-1.6,0.8-2.7C9.1,8.3,9.6,7.5,10.1,7
		c0.5-0.5,1.2-1.1,2-1.8c0.8-0.7,1.7-1.2,2.8-1.5c1-0.3,2.3-0.6,3.7-0.8s3-0.3,4.7-0.3v3.6c-1,0-1.9,0-2.7,0c-0.8,0-1.5,0.1-2.2,0.3
		S17.1,6.8,16.7,7c-0.5,0.1-0.9,0.5-1.3,1c-0.4,0.5-0.7,0.9-0.9,1.2c-0.2,0.3-0.4,0.9-0.6,1.7c-0.2,0.9-0.3,1.5-0.4,2.1
		c-0.1,0.5-0.1,1.4-0.2,2.7c-0.1,1.3-0.1,2.3-0.1,3.1c0,0.8,0,2,0,3.7c0,0.1,0,0.1,0,0.2c0,3.9-0.4,6.8-1.3,8.9
		c-0.9,2.1-2.5,3.4-4.9,4c2.4,0.6,4,1.8,4.9,3.8c0.9,2,1.3,4.9,1.3,8.6c0,5.4,0.2,8.9,0.5,10.5c0.4,2.3,1.4,3.8,2.9,4.5
		c1.4,0.7,3.6,1,6.6,1v3.5c-1.7,0-3.3-0.1-4.7-0.3c-1.4-0.2-2.7-0.5-3.7-0.8c-1-0.3-2-0.8-2.8-1.5c-0.8-0.7-1.4-1.3-2-1.8
		c-0.5-0.5-1-1.3-1.3-2.4c-0.4-1.1-0.6-1.9-0.8-2.6c-0.2-0.7-0.3-1.8-0.4-3.2c-0.1-1.4-0.1-2.5-0.2-3.3c0-0.8,0-2.1,0-3.7
		c0-0.8,0-1.4,0-1.7c0-0.3,0-0.9-0.1-1.6c0-0.7-0.1-1.3-0.2-1.6c-0.1-0.3-0.2-0.8-0.3-1.4c-0.1-0.6-0.3-1.1-0.5-1.4
		c-0.2-0.3-0.5-0.7-0.8-1.1c-0.3-0.4-0.7-0.7-1.1-1c-0.4-0.2-0.9-0.4-1.5-0.6c-0.6-0.2-1.2-0.3-1.9-0.3V33.6z"/>
</g>
<g>
	<path fill="#0F7AC0" d="M358.1,37.3c-0.7,0.1-1.3,0.2-1.9,0.3c-0.6,0.2-1.1,0.4-1.5,0.6c-0.4,0.2-0.8,0.5-1.1,1
		c-0.3,0.4-0.6,0.8-0.8,1.1c-0.2,0.3-0.4,0.8-0.5,1.4c-0.1,0.6-0.2,1.1-0.3,1.4c-0.1,0.3-0.1,0.9-0.2,1.6c0,0.7-0.1,1.3-0.1,1.6
		s0,0.9,0,1.7c0,1.7,0,2.9,0,3.7c0,0.8-0.1,1.9-0.2,3.3c-0.1,1.4-0.2,2.5-0.4,3.2c-0.2,0.7-0.5,1.6-0.8,2.6s-0.8,1.8-1.3,2.4
		c-0.5,0.5-1.2,1.1-2,1.8c-0.8,0.7-1.7,1.1-2.8,1.5c-1,0.3-2.3,0.6-3.7,0.8c-1.4,0.2-3,0.3-4.7,0.3V64c3.1,0,5.3-0.3,6.6-1
		c1.5-0.8,2.5-2.3,2.9-4.5c0.3-1.6,0.5-5.1,0.5-10.5c0-3.7,0.4-6.6,1.3-8.6c0.9-2,2.5-3.3,4.9-3.8c-2.4-0.6-4-1.9-4.9-4
		c-0.9-2.1-1.3-5-1.3-8.9c0,0,0-0.1,0-0.2c0-1.7,0-3,0-3.7c0-0.8,0-1.8-0.1-3.1c-0.1-1.3-0.1-2.2-0.2-2.7c-0.1-0.5-0.2-1.2-0.4-2.1
		c-0.2-0.9-0.4-1.4-0.6-1.7c-0.2-0.3-0.5-0.7-0.9-1.2c-0.4-0.5-0.8-0.8-1.3-1c-0.5-0.1-1-0.3-1.7-0.6c-0.7-0.2-1.4-0.3-2.2-0.3
		s-1.7,0-2.7,0V2.5c1.7,0,3.3,0.1,4.7,0.3s2.7,0.5,3.7,0.8c1,0.3,2,0.8,2.8,1.5c0.8,0.7,1.4,1.3,2,1.8s1,1.4,1.3,2.4s0.6,2,0.8,2.7
		c0.2,0.7,0.3,1.8,0.4,3.3c0.1,1.4,0.1,2.6,0.2,3.4c0,0.8,0,2.1,0,3.8c0,0.8,0,1.4,0,1.7c0,0.3,0,0.9,0.1,1.6c0,0.7,0.1,1.3,0.2,1.7
		s0.2,0.8,0.3,1.5c0.1,0.6,0.3,1.1,0.5,1.4c0.2,0.3,0.5,0.7,0.8,1.1s0.7,0.8,1.1,1c0.4,0.2,0.9,0.4,1.5,0.6c0.6,0.2,1.2,0.3,1.9,0.4
		V37.3z"/>
</g>
<g>
</g>
<g>
</g>
<g>
</g>
<g>
</g>
<g>
</g>
<g>
</g>
</svg>
